<?xml version="1.0" encoding="utf-8"?>
<!-- Generator: Adobe Illustrator 16.0.4, SVG Export Plug-In . SVG Version: 6.00 Build 0)  -->
<!DOCTYPE svg PUBLIC "-//W3C//DTD SVG 1.1//EN" "http://www.w3.org/Graphics/SVG/1.1/DTD/svg11.dtd">
<svg version="1.1" id="Layer_1" xmlns="http://www.w3.org/2000/svg" xmlns:xlink="http://www.w3.org/1999/xlink" x="0px" y="0px"
	 width="48px" height="48px" viewBox="0 0 48 48" enable-background="new 0 0 48 48" xml:space="preserve">
<path fill="#FC4C4C" d="M24,0C14.4,0,6.621,7.781,6.621,17.381c0,3.817,1.246,7.336,3.333,10.205L23.24,47.68
	C23.436,47.876,23.7,48,24.001,48c0.298,0,0.562-0.124,0.758-0.32l13.29-20.101c2.084-2.863,3.33-6.382,3.33-10.198
	C41.379,7.781,33.6,0,24,0z M24,24c-3.657,0-6.621-2.962-6.621-6.618c0-3.656,2.964-6.622,6.621-6.622
	c3.656,0,6.621,2.966,6.621,6.622C30.621,21.038,27.656,24,24,24z"/>
</svg>
