<?xml version="1.0" encoding="utf-8"?>
<!-- Generator: Adobe Illustrator 16.0.4, SVG Export Plug-In . SVG Version: 6.00 Build 0)  -->
<!DOCTYPE svg PUBLIC "-//W3C//DTD SVG 1.1//EN" "http://www.w3.org/Graphics/SVG/1.1/DTD/svg11.dtd">
<svg version="1.1" id="Layer_1" xmlns="http://www.w3.org/2000/svg" xmlns:xlink="http://www.w3.org/1999/xlink" x="0px" y="0px"
	 width="48px" height="48px" viewBox="0 0 48 48" enable-background="new 0 0 48 48" xml:space="preserve">
<path fill="#FC4C4C" d="M48,9.113c-1.768,0.781-3.664,1.312-5.656,1.55c2.034-1.219,3.596-3.146,4.331-5.447
	c-1.903,1.128-4.013,1.949-6.255,2.391c-1.797-1.916-4.355-3.111-7.188-3.111c-5.438,0-9.852,4.409-9.852,9.847
	c0,0.772,0.09,1.523,0.256,2.245c-8.182-0.412-15.44-4.332-20.295-10.289c-0.848,1.455-1.334,3.144-1.334,4.95
	c0,3.417,1.738,6.43,4.381,8.196c-1.615-0.049-3.133-0.493-4.459-1.232c0,0.042,0,0.084,0,0.124c0,4.771,3.393,8.753,7.896,9.656
	C9,28.221,8.131,28.339,7.232,28.339c-0.634,0-1.252-0.062-1.854-0.174c1.254,3.91,4.893,6.758,9.199,6.835
	c-3.369,2.645-7.615,4.216-12.23,4.216c-0.794,0-1.577-0.047-2.348-0.139c4.357,2.799,9.534,4.427,15.096,4.427
	c18.114,0,28.018-15.005,28.018-28.019c0-0.425-0.008-0.854-0.027-1.275C45.012,12.821,46.682,11.087,48,9.113z"/>
</svg>
